<?xml version="1.0" encoding="UTF-8" standalone="no"?>
<!-- Created with Inkscape (http://www.inkscape.org/) -->

<svg width="48.235661mm" height="11.288889mm" viewBox="0 0 48.235661 11.288889" version="1.1" id="svg5" xmlns="http://www.w3.org/2000/svg" xmlns:svg="http://www.w3.org/2000/svg">
   <defs id="defs2" />
   <g id="layer1" transform="translate(-13.145422,-12.917334)" fill="#53037e">
      <g aria-label="Midspace" id="text1266" style="font-weight:500;font-size:11.2889px;line-height:1.25;font-family:Orkney;-inkscape-font-specification:'Orkney Medium';stroke-width:0.264583">
         <path d="m 20.573519,12.917325 -3.025425,4.481694 -3.014136,-4.481694 h -1.388535 v 8.466676 h 1.298223 v -6.615296 l 3.093159,4.718761 3.127025,-4.718761 v 6.615296 h 1.286935 v -8.466676 z" id="path2069" />
         <path d="m 24.34313,14.72355 c 0.41769,0 0.767646,-0.338667 0.767646,-0.756357 0,-0.428978 -0.349956,-0.767645 -0.767646,-0.767645 -0.417689,0 -0.767645,0.338667 -0.767645,0.767645 0,0.41769 0.349956,0.756357 0.767645,0.756357 z m -0.632178,6.660451 h 1.253068 v -5.64445 h -1.253068 z" id="path2071" />
         <path d="m 30.610763,12.917325 v 3.409248 c -0.417689,-0.440267 -0.993423,-0.699911 -1.659468,-0.699911 -1.603024,0 -2.585158,1.286934 -2.585158,2.935114 0,1.648179 0.982134,2.935114 2.585158,2.935114 0.699912,0 1.286935,-0.282223 1.704624,-0.745068 l 0.06773,0.632179 h 1.106313 v -8.466676 z m -1.456268,7.473253 c -0.982134,0 -1.557868,-0.812801 -1.557868,-1.828802 0,-1.016001 0.575734,-1.828802 1.557868,-1.828802 0.666045,0 1.23049,0.485423 1.456268,1.174045 v 1.309513 c -0.225778,0.688623 -0.790223,1.174046 -1.456268,1.174046 z" id="path2073" />
         <path d="m 35.372387,21.49689 c 1.309512,0 2.269069,-0.745068 2.269069,-1.783646 0,-1.106313 -0.982135,-1.422402 -1.840091,-1.682047 -0.654756,-0.2032 -1.241779,-0.372533 -1.241779,-0.835378 0,-0.41769 0.587023,-0.632179 1.106312,-0.575734 0.406401,0.04516 0.880534,0.237067 1.174046,0.496711 l 0.677334,-0.869245 c -0.508001,-0.361245 -1.33209,-0.620889 -2.077158,-0.620889 -1.196623,0 -2.15618,0.722489 -2.15618,1.727201 0,1.049868 1.02729,1.354668 1.896536,1.636891 0.643467,0.2032 1.196623,0.395111 1.196623,0.857956 0,0.406401 -0.451556,0.654757 -1.072446,0.632179 -0.598311,-0.02258 -1.365957,-0.293512 -1.670757,-0.654756 l -0.620889,0.869245 c 0.474133,0.462845 1.467557,0.801512 2.35938,0.801512 z" id="path2075" />
         <path d="m 41.710751,15.626662 c -0.666045,0 -1.23049,0.259644 -1.648179,0.688623 v -0.575734 h -1.23049 v 8.466675 h 1.23049 v -3.397959 c 0.417689,0.428978 0.982134,0.688623 1.648179,0.688623 1.603024,0 2.585158,-1.286935 2.585158,-2.935114 0,-1.64818 -0.982134,-2.935114 -2.585158,-2.935114 z m -0.2032,4.763916 c -0.666045,0 -1.219201,-0.485423 -1.444979,-1.174046 v -1.309513 c 0.225778,-0.688622 0.778934,-1.174045 1.444979,-1.174045 0.982134,0 1.569157,0.812801 1.569157,1.828802 0,1.016001 -0.587023,1.828802 -1.569157,1.828802 z" id="path2077" />
         <path d="m 47.657707,15.626662 c -1.095023,0 -1.794935,0.372533 -2.269069,0.959556 l 0.857957,0.778934 c 0.361245,-0.462845 0.767645,-0.677334 1.354668,-0.677334 0.666045,0 1.241779,0.316089 1.241779,1.072446 v 0.508 l -0.936979,-0.124178 c -1.896535,-0.259644 -2.675469,0.609601 -2.675469,1.625602 0,1.004712 0.733778,1.727202 1.73849,1.727202 0.677335,0 1.377246,-0.338667 1.941691,-0.812801 l 0.05644,0.699912 h 1.106312 v -3.544715 c 0,-1.490135 -1.083734,-2.212624 -2.415825,-2.212624 z m -1.151467,4.075293 c 0,-0.440267 0.3048,-0.82409 1.591735,-0.632179 l 0.745067,0.112889 v 0.508001 c -0.440267,0.361245 -1.004712,0.699912 -1.580446,0.699912 -0.451556,0 -0.756356,-0.270934 -0.756356,-0.688623 z" id="path2079" />
         <path d="m 53.912463,21.49689 c 0.406401,0 0.970846,-0.07902 1.399824,-0.395112 v -1.23049 c -0.282222,0.327378 -0.756356,0.575734 -1.264357,0.575734 -1.004712,0 -1.580446,-0.801512 -1.580446,-1.885246 0,-1.083735 0.575734,-1.873958 1.580446,-1.873958 0.496712,0 0.970846,0.237067 1.264357,0.575734 v -1.241779 c -0.440267,-0.316089 -0.993423,-0.395111 -1.399824,-0.395111 -1.693335,0 -2.675469,1.23049 -2.675469,2.935114 0,1.704624 0.982134,2.935114 2.675469,2.935114 z" id="path2081" />
         <path d="m 61.381131,18.606931 c 0,-1.749779 -0.903112,-2.980269 -2.540003,-2.980269 -1.693335,0 -2.709336,1.253068 -2.709336,2.946403 0,1.704624 1.004712,2.923825 2.709336,2.923825 1.106313,0 1.896536,-0.51929 2.359381,-1.388535 l -0.869246,-0.609601 c -0.462845,0.72249 -0.824089,0.914401 -1.444979,0.914401 -0.92569,0 -1.422401,-0.553156 -1.524002,-1.456268 h 3.996271 c 0.02258,-0.112889 0.02258,-0.237067 0.02258,-0.349956 z m -2.517425,-1.907824 c 0.812801,0 1.275646,0.485423 1.388535,1.298224 h -2.856092 c 0.146756,-0.801512 0.632179,-1.298224 1.467557,-1.298224 z" id="path2083" />
      </g>
   </g>
</svg>
