<?xml version="1.0" encoding="UTF-8" standalone="no"?>
<svg
   xmlns:dc="http://purl.org/dc/elements/1.1/"
   xmlns:cc="http://creativecommons.org/ns#"
   xmlns:rdf="http://www.w3.org/1999/02/22-rdf-syntax-ns#"
   xmlns:svg="http://www.w3.org/2000/svg"
   xmlns="http://www.w3.org/2000/svg"
   width="34.854416mm"
   height="27.521343mm"
   viewBox="0 0 34.854416 27.521343"
   version="1.1"
   id="svg1016">
  <defs
     id="defs1010" />
  <metadata
     id="metadata1013">
    <rdf:RDF>
      <cc:Work
         rdf:about="">
        <dc:format>image/svg+xml</dc:format>
        <dc:type
           rdf:resource="http://purl.org/dc/dcmitype/StillImage" />
        <dc:title></dc:title>
      </cc:Work>
    </rdf:RDF>
  </metadata>
  <g
     id="layer1"
     transform="translate(-44.560887,-86.025045)">
    <path
       style="fill:none;stroke:#ffffff;stroke-width:0.32829;stroke-linecap:butt;stroke-linejoin:miter;stroke-miterlimit:4;stroke-dasharray:none;stroke-opacity:1"
       d="M 47.483738,96.947672 V 97.38299"
       id="path981" />
    <path
       id="path3813-4"
       style="color:#000000;display:inline;fill:none;fill-rule:evenodd;stroke:#ffffff;stroke-width:0.529167;stroke-miterlimit:4;stroke-dasharray:none"
       d="m 52.255297,100.4764 4.228716,2.02045" />
    <path
       id="path976"
       style="color:#000000;display:inline;fill:none;fill-rule:evenodd;stroke:#ffffff;stroke-width:0.529167;stroke-miterlimit:4;stroke-dasharray:none"
       d="m 76.803983,102.22224 1.59871,-0.72099" />
    <path
       id="path962"
       style="color:#000000;display:inline;fill:none;fill-rule:evenodd;stroke:#ffffff;stroke-width:0.529167;stroke-miterlimit:4;stroke-dasharray:none"
       d="m 63.364129,105.78414 3.269981,1.56237 3.723278,-1.87604" />
    <path
       id="path3813"
       style="color:#000000;display:inline;fill:none;fill-rule:evenodd;stroke:#ffffff;stroke-width:0.529167;stroke-miterlimit:4;stroke-dasharray:none"
       d="m 51.963317,99.013971 5.162011,2.466379" />
    <path
       id="path969"
       style="color:#000000;display:inline;fill:none;fill-rule:evenodd;stroke:#ffffff;stroke-width:0.529167;stroke-miterlimit:4;stroke-dasharray:none"
       d="m 63.59667,104.57233 3.03744,1.45127 3.6271,-1.82758" />
    <path
       style="fill:none;stroke:#ffffff;stroke-width:0.705556;stroke-linecap:round;stroke-linejoin:round;stroke-miterlimit:4;stroke-dasharray:none;stroke-opacity:1"
       d="m 49.55787,96.250813 c 0.0081,-1.364789 1.039294,-3.515984 1.987817,-3.556838 0.547218,-0.02357 1.851337,0.419811 2.238382,0.751696 0,0 0.800466,-1.058091 1.302939,-1.002261 0.601357,0.06682 1.031616,1.221095 1.198659,1.722226"
       id="path887" />
    <path
       style="fill:none;stroke:#ffffff;stroke-width:0.705556;stroke-linecap:round;stroke-linejoin:miter;stroke-miterlimit:4;stroke-dasharray:none;stroke-opacity:1"
       d="m 51.779548,92.710679 c 0,0 -1.516194,-1.033001 -1.553504,-2.655991 -0.03341,-1.453278 0.467721,-2.054634 0.968852,-2.639286 0.25027,-0.291982 1.536799,-1.169304 2.973373,-0.668174 1.425099,0.497128 1.964564,1.767796 2.054635,2.739513 0.133293,1.438023 -1.347372,3.174037 -1.436574,3.006782"
       id="path889" />
    <path
       style="fill:none;stroke:#ffffff;stroke-width:0.705556;stroke-linecap:round;stroke-linejoin:round;stroke-miterlimit:4;stroke-dasharray:none;stroke-opacity:1"
       d="m 62.924471,94.46016 c 0,0 0.637835,-2.409597 1.653646,-2.173362 0.846048,0.196755 1.015811,1.41741 1.015811,1.41741 0,0 0.873808,-0.926975 1.559152,-1.110305 0.570984,-0.152738 1.180956,-0.318946 1.960752,1.015811 0.528424,0.904491 0.607074,2.812526 0.259858,3.283668"
       id="path891" />
    <path
       style="fill:none;stroke:#ffffff;stroke-width:0.705556;stroke-linecap:round;stroke-linejoin:round;stroke-miterlimit:4;stroke-dasharray:none;stroke-opacity:1"
       d="m 64.719858,92.286798 c -1.34654,-0.968565 -1.727116,-2.411786 -1.488281,-3.330916 0.308472,-1.187124 1.322187,-2.633746 2.953217,-2.57645 2.091885,0.07349 3.130207,1.437073 3.118025,2.90718 -0.01879,2.267902 -1.724516,3.212797 -1.724516,3.212797"
       id="path893" />
    <path
       style="fill:none;stroke:#ffffff;stroke-width:0.705556;stroke-linecap:round;stroke-linejoin:round;stroke-miterlimit:4;stroke-dasharray:none;stroke-opacity:1"
       d="m 55.24683,113.19361 c 0,0 0.125528,-2.05595 0.822769,-3.38222 0.622619,-1.18433 2.248287,-1.8622 2.248287,-1.8622 0,0 -2.332374,-1.10907 -2.179095,-3.89244 0.138338,-2.51205 1.835632,-3.79063 3.785494,-3.76158 2.419938,0.0361 3.660392,1.81448 3.732515,3.68527 0.08149,2.11385 -1.133929,3.30729 -1.133929,3.30729 0.939323,0.33034 1.665744,2.41437 1.74814,3.16555 0.166273,1.51585 0.188988,2.74033 0.188988,2.74033"
       id="path895" />
    <path
       style="fill:none;stroke:#ffffff;stroke-width:0.705556;stroke-linecap:round;stroke-linejoin:round;stroke-miterlimit:4;stroke-dasharray:none;stroke-opacity:1"
       d="m 45.277708,107.94919 c -0.226936,-0.7302 -0.399454,-1.20158 -0.283482,-2.52772 0.136825,-1.56459 1.370163,-2.59859 1.370163,-2.59859 0,0 -0.779575,-0.85044 -0.685081,-2.33872 0.09449,-1.488285 0.585025,-2.134458 1.252046,-2.716708 0.554551,-0.484073 1.529848,-0.821559 2.371323,-0.776944 0.789363,0.04185 2.778602,1.036803 2.967591,3.092052 0.162251,1.76447 -0.732329,2.92931 -0.732329,2.92931 0,0 0.519717,0.82682 0.921317,1.65365 0.364909,0.75128 0.556636,1.69298 0.448847,2.26785 -0.141742,0.75596 -0.330729,1.06306 -0.330729,1.06306"
       id="path883" />
    <path
       style="fill:none;stroke:#ffffff;stroke-width:0.705556;stroke-linecap:round;stroke-linejoin:round;stroke-miterlimit:4;stroke-dasharray:none;stroke-opacity:1"
       d="m 69.654306,111.87642 c -0.255104,-0.58615 -0.223905,-1.78461 0.194716,-2.59859 0.587581,-1.14249 0.714865,-1.45294 1.272802,-2.17909 -0.545838,-0.69821 -0.925626,-1.68606 -0.897692,-2.70643 0.05184,-1.89342 1.314906,-3.7496 3.443791,-3.75208 2.109758,-0.002 3.730347,1.49274 3.793109,3.28772 0.06448,1.84408 -0.686268,3.02905 -0.686268,3.02905 0,0 1.003157,1.12533 1.456549,2.35424 0.337141,0.91382 0.261046,2.32321 0.261046,2.32321"
       id="path897" />
    <path
       id="path955"
       style="color:#000000;display:inline;fill:none;fill-rule:evenodd;stroke:#ffffff;stroke-width:0.529167;stroke-linecap:round;stroke-miterlimit:4;stroke-dasharray:none"
       d="m 75.901852,101.35388 1.964216,-0.98971 -18.325173,-6.981907 -11.842378,3.59401 v 0 l 0.400012,0.191124" />
    <path
       style="fill:none;stroke:#ffffff;stroke-width:0.635;stroke-linecap:butt;stroke-linejoin:miter;stroke-miterlimit:4;stroke-dasharray:none;stroke-opacity:1"
       d="m 78.190426,100.32368 v 1.4157"
       id="path979" />
    <path
       style="fill:none;stroke:#ffffff;stroke-width:0.635;stroke-linecap:butt;stroke-linejoin:miter;stroke-miterlimit:4;stroke-dasharray:none;stroke-opacity:1"
       d="m 66.606309,105.92389 v 1.41569"
       id="path983" />
    <path
       style="fill:none;stroke:#ffffff;stroke-width:0.450995;stroke-linecap:butt;stroke-linejoin:miter;stroke-miterlimit:4;stroke-dasharray:none;stroke-opacity:1"
       d="m 47.192733,96.925858 v 0.714107"
       id="path1633" />
    <path
       style="fill:none;stroke:#ffffff;stroke-width:0.705556;stroke-linecap:round;stroke-linejoin:round;stroke-miterlimit:4;stroke-dasharray:none;stroke-opacity:1"
       d="m 72.357171,98.080086 c 0.03341,-0.964726 0.738062,-3.436421 1.753873,-3.041989 0.809725,0.314411 0.932289,1.500932 0.932289,1.500932 0,0 1.207894,-1.077314 1.85983,-1.377574 0.536856,-0.247259 1.059216,-0.762692 1.609961,0.681724 0.552048,1.447832 -0.144622,3.898308 -0.491838,4.369451"
       id="path1635" />
    <path
       style="fill:none;stroke:#ffffff;stroke-width:0.705556;stroke-linecap:round;stroke-linejoin:round;stroke-miterlimit:4;stroke-dasharray:none;stroke-opacity:1"
       d="m 74.169263,95.063154 c -1.34654,-0.968565 -1.560073,-2.436843 -1.321238,-3.355973 0.308472,-1.187124 1.188553,-2.416589 2.819583,-2.359293 2.091885,0.07349 2.946459,1.153099 3.084616,2.773545 0.192666,2.259781 -1.774629,2.995641 -1.774629,2.995641"
       id="path1637" />
  </g>
</svg>
