<?xml version="1.0" encoding="utf-8"?>
<!-- Generator: Adobe Illustrator 25.0.1, SVG Export Plug-In . SVG Version: 6.00 Build 0)  -->
<svg version="1.1" id="Layer_1" xmlns="http://www.w3.org/2000/svg" xmlns:xlink="http://www.w3.org/1999/xlink" x="0px" y="0px"
	 viewBox="0 0 395 288" style="enable-background:new 0 0 395 288;" xml:space="preserve">
<style type="text/css">
	.st0{fill:#16703f;}
	.st1{fill:none;stroke:#16703f;stroke-width:8.5039;stroke-miterlimit:10;}
</style>
<path class="st0" d="M88.8,110.9c-0.3,0.1-0.7,0.3-1,0.4c-15.2,6.6-25.9,18-29.4,31.3c-0.8,3.1-1.2,8.2-1.2,11.3
	c2.9,0.2,5.7-0.2,8.6,0.5c-0.2-2.9,0.1-6.7,0.9-9.6c2.8-10.7,11.7-20.1,24.5-25.6c0.8-0.4,1.7-0.7,2.6-1
	C91.7,116.1,90.3,113.5,88.8,110.9z"/>
<path class="st0" d="M189.3,86.6c-15.7,6.8-26.4,18.6-29.6,32.2c-4.4-3.4-9.3-6.1-14.6-8.2c-1.9,2.5-4,4.6-6,6.9
	c7,2.4,13.4,6,18.5,10.6l1.4,1.3l1.9-0.2c0.8-0.1,1.7-0.2,2.5-0.3l3.6-0.3l0.3-3.6c1-12.7,10.5-24.1,25.4-30.6
	c1-0.5,2.1-0.9,3.1-1.3c-1.7-2.3-3.3-4.8-4.7-7.3C190.5,86.1,189.9,86.3,189.3,86.6z"/>
<path class="st0" d="M245.9,85.7c-1.7,2.6-3.6,4.8-5.5,6.9c9.6,3.2,17.9,8.7,23.5,16.1c0.2,0.2,0.3,0.4,0.5,0.7
	c1.1-3,2.3-5.9,4.4-8.1C262.8,94.4,254.9,89.1,245.9,85.7z"/>
<path class="st0" d="M344.9,154.3c-6.1-8-14.9-14.2-24.9-18.1c-1.1,2.6-2.4,5.1-3.9,7.7c9,3.3,16.8,8.6,22,15.5
	c5.9,7.8,7.9,16.9,5.7,25.6c-2.8,10.7-11.7,20.1-24.5,25.7c-22.2,9.7-50.9,5.6-66.8-9.4l-4.5-4.2l-2.4,5.7
	c-5.7,13.7-18,25.3-34.7,32.5c-36.3,15.8-72.5,7-94.3-19.5c-3.8-0.3-7.8-0.8-11.6-1.6c1,1.7,2.2,3.3,3.4,4.9
	c15.8,20.8,34.6,32.5,64.1,32.5c14.3,0,28.7-2.7,41.9-8.5c16.6-7.2,29.4-18.4,36.7-31.9c18.9,14.4,48,17.6,71.7,7.3
	c15.2-6.6,25.9-18,29.4-31.3C355,175.9,352.5,164.2,344.9,154.3z"/>
<circle class="st1" cx="218.8" cy="71.6" r="31.2"/>
<circle class="st1" cx="293.2" cy="122.5" r="31.2"/>
<circle class="st1" cx="117.3" cy="96.3" r="31.2"/>
<g>
	<path class="st0" d="M72.1,194.5c0.4,0,0.8,0.2,1.1,0.5l3.1,3.3c-1.7,2.1-3.8,3.7-6.3,4.8s-5.5,1.7-8.9,1.7c-3.1,0-5.9-0.5-8.4-1.6
		s-4.6-2.5-6.4-4.4c-1.8-1.9-3.1-4.2-4-6.8c-0.9-2.6-1.4-5.5-1.4-8.6c0-3.2,0.5-6,1.6-8.7c1-2.6,2.5-4.9,4.4-6.8
		c1.9-1.9,4.2-3.4,6.8-4.4c2.6-1.1,5.6-1.6,8.7-1.6c3.1,0,5.8,0.5,8.2,1.5c2.3,1,4.3,2.3,6,4l-2.6,3.6c-0.2,0.2-0.4,0.4-0.6,0.6
		c-0.2,0.2-0.6,0.3-1,0.3c-0.4,0-0.9-0.2-1.4-0.5c-0.5-0.3-1.1-0.7-1.8-1.1c-0.7-0.4-1.6-0.8-2.7-1.1c-1.1-0.3-2.5-0.5-4.2-0.5
		c-2,0-3.8,0.3-5.4,1c-1.7,0.7-3.1,1.7-4.3,2.9c-1.2,1.3-2.1,2.8-2.8,4.7c-0.7,1.8-1,3.9-1,6.2c0,2.4,0.3,4.5,1,6.3s1.6,3.4,2.7,4.6
		c1.1,1.3,2.5,2.2,4,2.9s3.2,1,5,1c1.1,0,2-0.1,2.9-0.2s1.7-0.3,2.4-0.6c0.7-0.3,1.4-0.6,2.1-1c0.6-0.4,1.3-0.9,1.9-1.5
		c0.2-0.2,0.4-0.3,0.6-0.4C71.6,194.5,71.8,194.5,72.1,194.5z"/>
	<path class="st0" d="M89.3,161.3v43.1h-7.2v-43.1H89.3z"/>
	<path class="st0" d="M110.1,174.2c2.2,0,4.2,0.4,6,1.1c1.8,0.7,3.3,1.7,4.6,3c1.3,1.3,2.3,2.9,3,4.8c0.7,1.9,1,4,1,6.4
		c0,2.4-0.3,4.5-1,6.4s-1.7,3.5-3,4.8c-1.3,1.3-2.8,2.4-4.6,3.1c-1.8,0.7-3.8,1.1-6,1.1c-2.2,0-4.2-0.4-6.1-1.1
		c-1.8-0.7-3.4-1.7-4.7-3.1c-1.3-1.3-2.3-2.9-3-4.8s-1.1-4-1.1-6.4c0-2.3,0.4-4.5,1.1-6.4c0.7-1.9,1.7-3.5,3-4.8
		c1.3-1.3,2.8-2.3,4.7-3C105.9,174.5,107.9,174.2,110.1,174.2z M110.1,199.3c2.5,0,4.3-0.8,5.5-2.5c1.2-1.7,1.8-4.1,1.8-7.3
		s-0.6-5.7-1.8-7.3c-1.2-1.7-3-2.5-5.5-2.5c-2.5,0-4.4,0.8-5.6,2.5c-1.2,1.7-1.8,4.1-1.8,7.3s0.6,5.6,1.8,7.3
		C105.8,198.5,107.6,199.3,110.1,199.3z"/>
	<path class="st0" d="M126.8,174.6h5.7c0.5,0,1,0.1,1.4,0.4s0.6,0.6,0.7,1l4.3,15.9c0.2,0.9,0.4,1.7,0.6,2.6
		c0.1,0.8,0.3,1.7,0.4,2.5c0.2-0.8,0.4-1.7,0.7-2.5c0.2-0.8,0.5-1.7,0.8-2.6l4.9-15.9c0.1-0.4,0.3-0.7,0.7-1
		c0.3-0.3,0.8-0.4,1.2-0.4h3.2c0.5,0,1,0.1,1.3,0.4s0.6,0.6,0.7,1l4.9,16.2c0.3,0.8,0.5,1.6,0.7,2.4c0.2,0.8,0.4,1.6,0.6,2.4
		c0.1-0.8,0.3-1.7,0.4-2.5c0.2-0.8,0.4-1.7,0.6-2.6l4.4-15.9c0.1-0.4,0.3-0.7,0.7-1s0.8-0.4,1.3-0.4h5.4l-9.4,29.8h-5.8
		c-0.6,0-1.1-0.4-1.3-1.3l-5.4-17.2c-0.2-0.6-0.3-1.1-0.5-1.7c-0.1-0.6-0.3-1.1-0.4-1.7c-0.1,0.6-0.2,1.2-0.4,1.7
		c-0.1,0.6-0.3,1.1-0.5,1.7l-5.4,17.1c-0.3,0.9-0.8,1.3-1.6,1.3h-5.5L126.8,174.6z"/>
	<path class="st0" d="M197.2,204.4c-0.9,0-1.5-0.4-1.8-1.3l-0.6-2.9c-0.6,0.7-1.3,1.3-1.9,1.9s-1.4,1-2.2,1.5s-1.6,0.7-2.5,0.9
		c-0.9,0.2-1.9,0.3-2.9,0.3c-1.6,0-3.1-0.3-4.5-1c-1.4-0.7-2.5-1.7-3.5-2.9c-1-1.3-1.7-2.9-2.3-4.8c-0.5-1.9-0.8-4.1-0.8-6.5
		c0-2.2,0.3-4.3,0.9-6.1c0.6-1.9,1.5-3.5,2.6-4.9c1.1-1.4,2.5-2.5,4-3.3c1.6-0.8,3.3-1.2,5.3-1.2c1.7,0,3.1,0.3,4.3,0.8
		c1.2,0.5,2.2,1.2,3.2,2.1v-15.7h7.2v43.1H197.2z M187.7,199.1c1.5,0,2.8-0.3,3.8-0.9s2-1.5,3-2.6v-13.3c-0.8-1-1.7-1.7-2.7-2.1
		s-2-0.6-3.1-0.6c-1.1,0-2.1,0.2-2.9,0.6c-0.9,0.4-1.6,1-2.2,1.8c-0.6,0.8-1.1,1.9-1.4,3.1c-0.3,1.3-0.5,2.8-0.5,4.5
		c0,1.7,0.1,3.2,0.4,4.4c0.3,1.2,0.7,2.2,1.2,3c0.5,0.8,1.2,1.3,1.9,1.7C185.9,199,186.8,199.1,187.7,199.1z"/>
	<path class="st0" d="M209.3,204.4v-29.8h4.2c0.7,0,1.2,0.1,1.5,0.4s0.5,0.7,0.6,1.4l0.4,3.6c1.1-1.8,2.3-3.3,3.7-4.3s3-1.6,4.8-1.6
		c1.5,0,2.7,0.3,3.7,1l-0.9,5.4c-0.1,0.3-0.2,0.6-0.4,0.7c-0.2,0.1-0.5,0.2-0.8,0.2c-0.3,0-0.7-0.1-1.2-0.2c-0.5-0.1-1.2-0.2-2-0.2
		c-1.5,0-2.8,0.4-3.8,1.2c-1.1,0.8-2,2-2.7,3.6v18.5H209.3z"/>
</g>
</svg>
