<?xml version="1.0" encoding="UTF-8" standalone="no"?>
<svg
   xmlns:dc="http://purl.org/dc/elements/1.1/"
   xmlns:cc="http://creativecommons.org/ns#"
   xmlns:rdf="http://www.w3.org/1999/02/22-rdf-syntax-ns#"
   xmlns:svg="http://www.w3.org/2000/svg"
   xmlns="http://www.w3.org/2000/svg"
   xmlns:sodipodi="http://sodipodi.sourceforge.net/DTD/sodipodi-0.dtd"
   xmlns:inkscape="http://www.inkscape.org/namespaces/inkscape"
   version="1.1"
   id="Layer_1"
   x="0px"
   y="0px"
   viewBox="0 0 304.6203 224.20457"
   xml:space="preserve"
   sodipodi:docname="Clowdr-icon-white.svg"
   inkscape:version="1.0.1 (3bc2e813f5, 2020-09-07)"
   width="304.6203"
   height="224.20457"><metadata
   id="metadata905"><rdf:RDF><cc:Work
       rdf:about=""><dc:format>image/svg+xml</dc:format><dc:type
         rdf:resource="http://purl.org/dc/dcmitype/StillImage" /><dc:title></dc:title></cc:Work></rdf:RDF></metadata><defs
   id="defs903" /><sodipodi:namedview
   pagecolor="#ffffff"
   bordercolor="#666666"
   borderopacity="1"
   objecttolerance="10"
   gridtolerance="10"
   guidetolerance="10"
   inkscape:pageopacity="0"
   inkscape:pageshadow="2"
   inkscape:window-width="1920"
   inkscape:window-height="1137"
   id="namedview901"
   showgrid="false"
   inkscape:zoom="1.1625523"
   inkscape:cx="461.10754"
   inkscape:cy="126.77911"
   inkscape:window-x="1912"
   inkscape:window-y="-8"
   inkscape:window-maximized="1"
   inkscape:current-layer="Layer_1"
   fit-margin-top="0"
   fit-margin-left="0"
   fit-margin-right="0"
   fit-margin-bottom="0" />
<style
   type="text/css"
   id="style870">
	.st0{fill:#16703f;}
	.st1{fill:none;stroke:#16703f;stroke-width:8.5039;stroke-miterlimit:10;}
</style>
<path
   id="path872"
   style="fill:#ffffff;fill-opacity:1"
   d="m 36.243716,75.144922 c -6.387585,2.46678 -12.327109,6.03053 -17.701172,10.25781 -4.763291,3.83628 -9.119469,8.22566 -12.697265,13.19532 C 2.950447,102.66921 0.148209,107.01025 0,115.08069 c 0.290014,8.60164 2.553416,15.74793 8.034815,23.0058 2.933695,3.92458 6.119583,7.6534 9.216861,11.44865 10.386889,12.52825 20.915261,24.94698 31.888006,36.96811 7.45147,8.08372 15.2124,15.97239 24.05124,22.55381 8.0641,5.96344 17.2049,10.57767 26.990338,12.90319 11.34768,2.74809 23.20293,2.7277 34.73269,1.25309 16.05212,-2.13657 31.75684,-7.79685 45.01916,-17.17057 7.76798,-5.52147 14.61529,-12.41768 19.73443,-20.47793 12.62512,8.20681 27.8796,11.89704 42.8568,11.53216 14.39961,-0.36322 28.86419,-4.51393 40.74946,-12.76985 8.9391,-6.23376 16.28639,-15.11928 19.56176,-25.61154 3.20089,-10.26599 2.03084,-21.74809 -2.98442,-31.24061 -5.23673,-10.07776 -14.0627,-17.96838 -24.04617,-23.19759 -3.42453,-1.80644 -7.02538,-3.24227 -10.63547,-4.628578 -1.75691,4.377598 -3.82307,8.630528 -6.26172,12.669918 -0.67065,1.21396 -0.0572,2.90231 1.29711,3.30083 2.80943,0.87614 5.51669,2.10242 8.14648,3.42606 7.17365,3.71784 13.6383,9.34556 17.13699,16.74046 2.71888,5.63269 3.27738,12.29592 1.32968,18.25792 -2.33159,7.12908 -7.5934,12.97714 -13.72094,17.13821 -1.81544,1.24965 -3.8894,2.43331 -5.75964,3.36504 -1.21595,0.60233 -2.41627,1.13306 -3.5996,1.62304 -5.7612,2.34038 -11.9007,3.70475 -18.09571,4.18164 -0.62542,0.0431 -1.58785,0.10638 -2.23531,0.13109 -5.24938,0.22059 -10.52461,-0.18373 -15.6768,-1.21507 -0.92813,-0.18609 -2.12048,-0.45294 -3.13998,-0.71602 -5.21499,-1.32371 -10.26517,-3.35046 -14.86783,-6.14726 -0.53527,-0.33357 -1.33435,-0.83254 -1.95556,-1.26235 -0.90918,-0.60961 -1.94343,-1.36627 -2.87981,-2.13789 -2.95374,-2.43583 -5.64563,-5.17341 -8.45916,-7.7611 -0.73189,-0.85974 -2.06615,-1.18383 -3.02398,-0.51407 -0.90213,0.63594 -1.01374,1.86167 -1.52081,2.78721 -2.11146,5.05393 -4.05816,10.25148 -7.25323,14.75015 -0.94954,1.3906 -1.97456,2.72866 -3.05393,4.02086 -0.40873,0.48619 -1.03302,1.20759 -1.54796,1.76593 -1.18404,1.29644 -2.4291,2.53075 -3.66493,3.6618 -7.71732,7.02975 -17.1305,12.02943 -27.01368,15.27149 -1.07774,0.3517 -2.41192,0.74749 -3.60156,1.07422 -10.59201,2.92315 -21.80097,3.49779 -32.64844,1.77734 -0.37967,-0.0703 -1.18362,-0.20199 -1.72572,-0.29578 C 93.859672,202.39357 77.373102,193.4428 65.460682,180.1847 55.129242,168.98914 45.175459,157.44627 35.517931,145.6654 31.143327,140.23536 26.66835,134.86948 22.694539,129.1337 c -2.737819,-4.14142 -5.268541,-8.75378 -5.423379,-13.83386 -0.158635,-4.04614 1.631054,-7.97237 4.366017,-10.89103 2.059963,-2.19298 4.259926,-4.26705 6.620216,-6.135488 4.912506,-3.84363 10.591631,-6.64907 16.538544,-8.48979 1.201265,-0.40906 2.402693,-0.81765 3.604025,-1.2265 -2.306256,-2.486 -4.963747,-4.70392 -6.78564,-7.59583 -1.297173,-2.1274 -2.511937,-4.30317 -3.761231,-6.45886 -0.536458,0.2142 -1.072916,0.42839 -1.609375,0.64258 z"
   sodipodi:nodetypes="ccccccccccccccccccccccccccccccccccccccccccccccccccccccc" />
<path
   id="path874"
   d="m 139.06989,49.914455 c -1.23751,0.07961 -2.23924,0.944742 -3.39844,1.3125 -8.19227,3.528677 -15.85927,8.513422 -21.82564,15.199165 -3.83661,4.270582 -6.97154,9.196662 -9.02983,14.564502 -4.29335,-2.7346 -8.966768,-4.8011 -13.707028,-6.625 -3.27217,4.46297 -7.18193,8.39263 -10.78794,12.57629 -0.29647,0.43882 -1.31949,1.0687 -0.27807,1.15568 5.64879,1.92776 11.37234,3.88487 16.39502,7.1862 3.08717,1.95205 5.876618,4.33465 8.477628,6.890428 4.35997,-0.49405 8.72418,-0.95239 13.10156,-1.26367 0.45043,-4.150948 0.37325,-8.414788 1.63588,-12.433758 1.11308,-3.52834 2.96515,-6.79846 5.29772,-9.66195 0.44175,-0.53575 1.08033,-1.29501 1.64996,-1.87654 4.85759,-5.20626 11.15727,-8.829532 17.73217,-11.423736 1.68619,-0.686596 3.39311,-1.321311 5.08857,-1.984876 -2.88804,-3.882961 -5.82044,-7.781585 -8.04688,-12.089844 -0.3581,-0.925318 -1.30511,-1.578885 -2.30468,-1.525391 z"
   style="fill:#ffffff;fill-opacity:1" />
<path
   id="path876"
   d="m 191.58356,50.141018 c -1.13326,0.596702 -1.53787,1.922567 -2.31974,2.865804 -2.56348,3.585728 -5.67133,6.730297 -8.55917,10.048258 5.74069,1.882269 11.58267,3.747303 16.6867,7.068132 0.96508,0.59842 2.11114,1.39234 2.88308,1.97294 0.53536,0.40987 0.85203,0.63898 1.32899,1.03268 0.47461,0.38285 0.99993,0.82934 1.34871,1.13553 2.78739,2.42823 5.1734,5.3014 7.05946,8.4801 0.87628,1.36326 1.7524,2.72661 2.62861,4.08992 1.28697,-3.21705 2.4352,-6.48687 3.70173,-9.71096 0.82405,-2.06557 2.03831,-3.9637 3.63554,-5.51711 0.51056,-0.5549 1.02125,-1.10967 1.53187,-1.66451 -3.64796,-4.272934 -7.59486,-8.344061 -12.2115,-11.580507 -5.15795,-3.724021 -10.93752,-6.50958 -16.90569,-8.671449 -0.26953,0.15039 -0.53906,0.300781 -0.80859,0.451172 z"
   style="fill:#ffffff;fill-opacity:1" />

<path
   id="circle880"
   style="fill:none;stroke:#ffffff;stroke-width:18;stroke-miterlimit:10;stroke-dasharray:none"
   d="m 197.31598,40.2 a 31.200001,31.200001 0 0 1 -31.2,31.200002 31.200001,31.200001 0 0 1 -31.2,-31.200002 31.200001,31.200001 0 0 1 31.2,-31.2 31.200001,31.200001 0 0 1 31.2,31.2 z"
   class="st1" />
<path
   id="circle882"
   style="fill:none;stroke:#ffffff;stroke-width:18;stroke-miterlimit:10;stroke-dasharray:none"
   d="m 271.71599,91.100002 a 31.200001,31.200001 0 0 1 -31.2,31.199998 31.200001,31.200001 0 0 1 -31.2,-31.199998 31.200001,31.200001 0 0 1 31.2,-31.200001 31.200001,31.200001 0 0 1 31.2,31.200001 z"
   class="st1" />
<path
   id="circle884"
   style="fill:none;stroke:#ffffff;stroke-width:18;stroke-miterlimit:10;stroke-dasharray:none"
   d="m 95.815982,64.900005 a 31.200001,31.200001 0 0 1 -31.2,31.199997 31.200001,31.200001 0 0 1 -31.199998,-31.199997 31.200001,31.200001 0 0 1 31.199998,-31.200001 31.200001,31.200001 0 0 1 31.2,31.200001 z"
   class="st1" />

</svg>
