<?xml version="1.0" standalone="no"?>
<!DOCTYPE svg PUBLIC "-//W3C//DTD SVG 20010904//EN"
 "http://www.w3.org/TR/2001/REC-SVG-20010904/DTD/svg10.dtd">
<svg version="1.0" xmlns="http://www.w3.org/2000/svg"
 width="1220.000000pt" height="1220.000000pt" viewBox="0 0 1220.000000 1220.000000"
 preserveAspectRatio="xMidYMid meet">
<metadata>
Created by potrace 1.11, written by Peter Selinger 2001-2013
</metadata>
<g transform="translate(0.000000,1220.000000) scale(0.100000,-0.100000)"
fill="#000000" stroke="none">
<path d="M6519 10586 c-2 -2 -33 -7 -69 -10 -36 -4 -85 -11 -110 -16 -25 -6
-56 -13 -70 -16 -165 -36 -436 -160 -553 -254 -7 -5 -39 -30 -72 -56 -60 -47
-170 -154 -235 -230 -42 -48 -150 -209 -150 -223 0 -5 -4 -11 -8 -13 -10 -4
-72 -133 -97 -203 -10 -27 -23 -56 -28 -62 -5 -7 -7 -13 -3 -13 4 0 0 -12 -7
-27 -7 -16 -13 -35 -12 -43 1 -8 -2 -19 -6 -25 -8 -12 -19 -58 -25 -103 -2
-19 -6 -38 -9 -42 -9 -14 -20 -174 -19 -280 0 -187 23 -322 87 -523 l15 -48
-26 -16 c-76 -47 -118 -73 -127 -80 -6 -5 -33 -23 -60 -42 -162 -111 -364
-305 -483 -463 -39 -53 -72 -101 -72 -106 0 -6 -3 -12 -7 -14 -8 -3 -63 -84
-63 -92 0 -3 -17 -36 -37 -73 -21 -37 -38 -74 -40 -81 -2 -18 -33 -82 -39 -82
-6 0 -51 28 -80 50 -20 15 -21 18 -8 56 115 325 119 712 12 1034 -12 36 -23
67 -23 70 -16 61 -165 337 -208 382 -7 7 -25 31 -41 53 -33 46 -253 265 -266
265 -5 0 -15 6 -22 13 -11 11 -97 70 -153 105 -29 18 -224 113 -238 116 -13 3
-40 13 -72 26 -18 8 -66 21 -90 26 -5 1 -12 3 -15 4 -34 13 -193 39 -271 45
-116 9 -287 3 -361 -11 -15 -3 -39 -7 -55 -9 -15 -2 -39 -7 -53 -10 -14 -3
-36 -8 -50 -11 -86 -17 -388 -137 -410 -163 -11 -14 -60 -41 -60 -34 0 5 -4 3
-8 -2 -4 -6 -36 -32 -72 -57 -188 -134 -366 -333 -464 -518 -16 -30 -34 -58
-40 -62 -6 -4 -7 -8 -3 -8 5 0 1 -10 -7 -22 -9 -12 -16 -30 -16 -38 0 -9 -5
-21 -12 -28 -6 -6 -13 -17 -14 -24 -1 -7 -11 -38 -22 -68 -22 -60 -54 -166
-57 -190 -1 -8 -7 -42 -14 -75 -30 -160 -30 -393 0 -542 6 -29 12 -63 13 -75
2 -13 6 -30 10 -38 3 -8 7 -24 9 -35 1 -11 6 -26 11 -33 4 -7 6 -16 3 -18 -3
-3 6 -30 19 -60 l24 -54 -115 -75 c-64 -41 -125 -84 -137 -95 -12 -11 -25 -20
-29 -20 -4 0 -14 -6 -21 -13 -7 -7 -35 -30 -62 -52 -102 -82 -289 -261 -351
-336 -166 -200 -256 -338 -309 -477 -15 -39 -27 -73 -27 -74 0 -2 -4 -21 -9
-43 -25 -104 -33 -312 -17 -420 8 -48 18 -114 22 -137 20 -107 122 -375 148
-386 4 -2 7 -9 7 -16 0 -14 87 -148 155 -237 58 -76 252 -317 274 -341 9 -9
30 -33 46 -54 41 -52 201 -244 223 -269 10 -11 47 -56 83 -100 35 -44 73 -89
84 -100 11 -11 36 -41 56 -65 20 -25 45 -55 55 -66 11 -12 37 -43 59 -69 22
-26 48 -57 59 -69 10 -11 35 -41 55 -66 20 -24 45 -54 56 -65 11 -11 61 -67
110 -124 134 -153 132 -151 188 -214 85 -96 89 -101 162 -182 109 -121 120
-133 228 -248 164 -174 393 -399 532 -522 97 -86 107 -94 200 -168 33 -26 71
-56 85 -67 56 -45 261 -181 350 -232 94 -53 285 -150 305 -154 6 -1 30 -11 55
-22 75 -34 272 -101 340 -117 8 -2 42 -10 75 -18 52 -13 129 -29 160 -33 6 0
26 -4 45 -7 86 -16 111 -19 265 -34 111 -10 553 -10 655 0 41 4 98 10 125 12
28 3 68 7 90 10 22 3 56 7 75 10 19 2 36 5 38 6 1 1 10 2 20 3 14 2 105 18
122 21 3 1 25 5 50 9 48 9 67 13 103 22 12 3 33 7 47 10 14 3 59 14 100 26 41
11 82 21 90 23 8 1 22 5 30 8 8 3 69 22 135 43 66 21 122 40 125 43 3 3 13 7
22 9 10 1 33 9 53 17 19 9 37 15 40 16 21 1 379 170 383 181 2 4 9 8 15 8 7 0
55 25 107 56 52 31 108 63 124 72 16 10 41 27 56 40 15 12 31 22 34 22 7 0
171 118 211 152 130 107 175 149 270 244 121 122 127 129 215 241 34 43 67 85
73 93 7 8 29 41 50 72 21 32 42 58 48 58 5 0 44 -21 87 -48 69 -42 131 -74
297 -153 28 -13 52 -24 55 -25 3 0 14 -4 25 -9 60 -25 122 -47 139 -51 10 -2
24 -8 30 -14 7 -5 16 -7 19 -3 4 3 13 0 22 -7 8 -7 15 -10 15 -7 0 3 24 -2 53
-12 28 -10 86 -26 127 -35 41 -9 93 -21 115 -26 22 -5 56 -12 75 -15 19 -2 46
-7 60 -9 186 -35 537 -49 760 -31 52 4 105 8 118 8 12 1 22 3 22 7 0 3 15 5
33 6 44 1 108 10 197 28 41 9 86 18 100 20 14 3 26 5 28 7 2 2 4 2 52 13 120
27 379 120 505 182 39 19 76 34 82 34 6 0 16 7 23 15 6 8 15 14 18 12 15 -4
305 176 369 230 12 10 36 29 52 41 97 75 251 232 337 342 136 174 229 343 298
542 15 42 29 86 31 98 3 11 7 29 10 40 9 36 13 57 19 91 3 19 8 57 13 84 9 59
9 341 0 405 -4 25 -9 61 -11 81 -24 170 -95 364 -209 569 -25 46 -124 193
-145 217 -10 10 -35 40 -57 68 -127 157 -363 358 -563 479 -54 33 -63 42 -57
60 3 11 7 26 9 31 1 6 13 44 25 85 13 41 25 86 27 100 3 14 9 48 14 75 8 44
16 108 24 198 1 16 -2 31 -6 33 -5 3 -5 11 -1 17 9 12 8 35 -1 152 -26 328
-164 660 -376 909 -87 102 -239 236 -350 308 -53 34 -225 128 -235 128 -3 0
-20 6 -38 13 -27 12 -101 38 -117 42 -3 1 -12 4 -20 8 -32 12 -188 46 -250 54
-80 10 -356 10 -430 0 -101 -14 -107 -15 -210 -41 -8 -3 -27 -9 -42 -15 -16
-6 -28 -8 -28 -6 0 3 -25 -6 -55 -20 -31 -13 -58 -24 -60 -24 -3 -1 -21 -7
-40 -15 -20 -9 -39 -16 -43 -17 -4 -2 -33 -18 -64 -36 -31 -18 -59 -33 -62
-33 -15 0 -198 -133 -244 -177 -12 -13 -25 -23 -29 -23 -7 0 -107 83 -111 93
-2 4 -10 7 -17 7 -7 0 -15 4 -17 8 -3 8 -146 104 -205 138 -23 13 -32 24 -31
41 2 13 5 23 9 23 3 0 6 6 7 13 0 13 2 20 31 118 10 37 21 82 24 100 3 19 8
45 11 59 21 93 21 406 0 500 -3 14 -7 39 -10 55 -26 154 -72 273 -198 522 -6
13 -14 23 -18 23 -5 0 -8 4 -8 10 0 12 -66 107 -92 133 -10 10 -18 21 -18 25
0 10 -166 178 -211 214 -138 111 -200 151 -339 218 -36 17 -83 38 -105 47 -22
8 -49 19 -60 24 -19 8 -123 38 -149 43 -6 2 -36 8 -66 14 -30 6 -71 14 -90 17
-43 8 -354 17 -361 11z m291 -730 c8 -3 26 -8 40 -10 124 -24 274 -98 369
-181 69 -60 161 -160 161 -174 0 -4 9 -17 20 -29 12 -12 18 -22 15 -22 -4 0 2
-12 12 -27 24 -36 80 -171 87 -209 2 -16 5 -29 6 -29 7 0 22 -136 20 -190 -2
-82 -13 -190 -20 -190 -1 0 -3 -13 -5 -29 -8 -60 -102 -267 -135 -296 -3 -3
-17 -21 -31 -40 -100 -134 -304 -272 -451 -305 -13 -2 -43 -10 -68 -16 -69
-16 -256 -19 -330 -5 -192 37 -343 117 -475 252 -89 91 -105 112 -154 204 -73
139 -104 257 -104 404 -1 129 7 183 44 298 52 165 184 343 324 439 28 19 52
37 55 40 8 9 139 69 183 83 49 16 80 23 133 32 21 3 40 7 42 9 6 5 246 -2 262
-9z m-4040 -996 c69 -15 69 -15 103 -28 16 -7 31 -12 34 -12 25 0 208 -107
249 -145 6 -5 27 -24 46 -41 41 -36 135 -157 160 -206 41 -81 68 -143 68 -159
0 -10 5 -21 11 -25 6 -3 9 -15 6 -25 -3 -10 -1 -21 3 -24 12 -7 23 -96 25
-190 6 -346 -192 -665 -505 -815 -58 -28 -151 -61 -185 -66 -11 -2 -31 -6 -45
-9 -72 -18 -262 -13 -355 9 -116 27 -266 102 -363 180 -32 27 -117 118 -154
167 -52 68 -110 191 -140 294 -30 108 -33 333 -4 440 70 260 248 477 481 586
98 45 107 49 135 55 39 8 55 12 55 14 0 1 20 4 45 7 25 2 46 6 48 8 8 7 233
-4 282 -15z m5175 -1106 c44 -29 110 -78 147 -109 l67 -55 -15 -38 c-8 -20
-19 -46 -24 -57 -10 -22 -38 -117 -47 -155 -6 -29 -7 -36 -17 -70 -7 -28 -13
-67 -23 -150 -9 -73 -8 -302 0 -365 13 -94 18 -120 24 -145 3 -14 7 -32 9 -40
15 -79 97 -299 141 -378 39 -71 110 -180 161 -247 52 -68 190 -207 248 -251
21 -16 41 -31 44 -35 3 -3 34 -25 70 -49 36 -24 68 -48 72 -54 4 -6 8 -7 8 -2
0 5 6 3 14 -3 61 -51 335 -157 479 -186 15 -3 37 -7 50 -10 68 -14 118 -17
277 -18 161 0 212 3 280 20 14 3 39 7 56 9 39 4 248 71 294 94 19 10 37 17 40
17 6 -2 177 90 194 104 6 5 36 26 66 46 30 20 60 41 66 47 6 6 31 27 54 46 24
19 54 47 68 62 l25 28 36 -22 c20 -12 45 -27 56 -32 11 -6 36 -23 56 -38 20
-16 42 -28 48 -28 6 0 11 -4 11 -8 0 -4 12 -15 28 -24 15 -9 47 -35 72 -58 25
-23 59 -54 75 -68 58 -52 236 -272 220 -272 -4 0 2 -12 13 -27 29 -42 86 -167
97 -213 1 -3 7 -23 13 -45 30 -107 41 -257 27 -385 -15 -145 -92 -331 -204
-490 -61 -87 -284 -310 -310 -310 -5 0 -11 -3 -13 -7 -5 -13 -76 -63 -87 -63
-6 0 -11 -4 -11 -10 0 -5 -17 -17 -37 -25 -21 -9 -40 -19 -43 -23 -8 -12 -144
-79 -250 -124 -89 -37 -264 -94 -320 -104 -14 -3 -32 -7 -40 -10 -8 -4 -24 -8
-36 -9 -11 -2 -46 -8 -78 -15 -32 -6 -74 -13 -94 -15 -21 -2 -66 -8 -102 -12
-36 -5 -95 -9 -132 -8 -38 0 -68 -2 -68 -5 0 -3 -26 -4 -57 -2 -187 8 -239 10
-243 12 -3 1 -9 2 -14 1 -8 -2 -123 14 -186 25 -72 12 -86 15 -100 19 -8 2
-31 7 -50 11 -41 7 -50 9 -70 17 -8 3 -37 11 -65 17 -27 7 -54 17 -59 21 -6 5
-18 9 -27 9 -23 0 -225 84 -318 132 -99 52 -271 166 -271 180 0 6 -3 9 -6 5
-8 -7 -29 10 -197 166 -54 50 -120 112 -148 138 -27 27 -49 46 -49 42 0 -3 -6
-1 -13 5 -15 13 -65 6 -86 -11 -11 -9 -57 -97 -66 -127 -3 -10 -17 -46 -25
-65 -5 -11 -18 -42 -30 -70 -42 -101 -56 -130 -106 -230 -28 -56 -64 -121 -80
-145 -16 -23 -33 -50 -39 -59 -12 -20 -67 -94 -75 -101 -3 -3 -18 -23 -34 -45
-94 -128 -407 -400 -582 -506 -38 -23 -81 -50 -96 -61 -16 -11 -28 -16 -28
-11 0 4 -5 0 -11 -9 -5 -10 -19 -18 -29 -18 -10 0 -21 -4 -24 -9 -9 -15 -267
-135 -366 -170 -19 -7 -44 -17 -55 -22 -22 -10 -172 -59 -195 -64 -8 -2 -15
-4 -15 -5 0 -1 -7 -3 -16 -5 -8 -1 -51 -12 -95 -23 -43 -12 -91 -23 -107 -26
-15 -2 -35 -7 -45 -10 -9 -3 -35 -8 -57 -11 -22 -4 -47 -8 -55 -10 -26 -5
-164 -20 -177 -18 -7 0 -13 -2 -13 -6 0 -7 -37 -9 -270 -10 -183 -1 -275 2
-350 12 -25 4 -67 9 -95 13 -27 3 -61 8 -75 11 -14 2 -38 5 -55 7 -16 2 -30 5
-30 6 0 1 -9 3 -20 5 -87 16 -145 29 -176 40 -20 8 -39 12 -41 9 -3 -2 -21 3
-41 11 -20 8 -40 15 -44 16 -20 0 -59 13 -70 22 -7 5 -13 7 -13 3 0 -3 -17 0
-37 8 -21 8 -47 17 -58 22 -11 4 -24 8 -30 9 -12 3 -112 42 -140 54 -104 47
-208 96 -245 117 -25 14 -57 30 -72 35 -16 6 -28 15 -28 20 0 5 -5 9 -11 9
-35 0 -439 279 -471 324 -4 6 -8 8 -8 5 0 -22 -256 234 -469 470 -13 14 -49
54 -80 88 -31 34 -74 82 -96 107 -22 26 -53 61 -70 79 -16 18 -45 51 -64 72
-19 22 -51 58 -70 80 -20 22 -58 67 -86 99 -27 32 -58 68 -68 80 -11 11 -35
41 -55 65 -21 24 -42 49 -47 55 -6 6 -75 88 -153 181 -79 94 -151 179 -161
190 -9 11 -55 67 -101 125 -46 58 -88 110 -94 115 -6 6 -25 28 -42 50 -45 59
-263 337 -280 358 -8 9 -14 21 -14 26 0 5 -4 11 -9 13 -15 6 -137 196 -177
276 -22 42 -43 80 -49 84 -5 4 -7 8 -3 8 3 0 -5 30 -18 68 -14 37 -27 81 -30
97 -11 69 -12 193 -3 235 6 25 12 53 14 63 6 27 67 150 82 165 7 7 13 18 13
23 0 11 230 241 279 279 18 14 42 33 54 42 12 10 27 21 32 26 6 4 33 22 60 39
28 18 55 36 60 41 6 4 30 19 55 32 25 14 48 29 51 33 3 5 9 8 13 8 3 0 13 2
22 6 10 3 22 0 28 -8 6 -8 38 -37 71 -64 33 -28 62 -53 65 -56 17 -22 193
-129 285 -174 99 -49 259 -108 325 -120 14 -3 36 -7 50 -10 99 -22 231 -33
365 -29 124 4 209 9 223 13 5 2 19 5 57 13 22 4 51 11 65 14 37 8 219 70 265
90 22 10 43 17 48 16 4 -1 7 2 7 7 0 5 15 15 33 22 81 33 273 167 359 250 38
37 62 48 70 32 1 -5 25 -19 51 -33 27 -14 57 -33 67 -42 11 -10 23 -18 28 -18
5 0 21 -11 36 -25 15 -14 30 -25 34 -25 7 0 87 -66 129 -107 13 -12 23 -21 23
-19 0 2 18 -14 40 -36 l39 -40 73 7 c40 5 79 8 86 8 6 0 12 3 12 6 0 3 26 6
58 7 31 0 91 4 132 9 41 4 94 8 118 10 23 1 44 4 46 6 2 2 7 38 10 79 13 175
22 265 25 265 1 0 4 17 6 37 2 21 11 58 19 83 9 25 16 50 16 55 0 4 10 30 22
57 12 26 22 50 23 53 0 3 9 21 20 40 11 19 18 38 17 43 -1 4 2 7 8 7 5 0 10 7
10 15 0 8 5 15 10 15 6 0 10 7 10 15 0 8 5 15 10 15 6 0 10 5 10 11 0 18 85
122 166 203 81 80 215 188 284 227 19 11 53 30 75 44 22 13 42 24 45 25 4 0
24 -17 45 -38 22 -20 60 -52 85 -71 25 -19 50 -39 55 -46 15 -16 139 -93 223
-137 81 -43 259 -111 337 -128 28 -7 59 -14 70 -16 11 -3 34 -7 50 -9 17 -3
53 -8 80 -12 112 -17 410 -7 505 17 19 5 50 12 68 15 86 14 276 88 397 153
111 60 288 191 349 258 l20 22 35 -20 c20 -11 72 -44 116 -74z m1835 63 c14
-3 40 -8 57 -11 18 -2 59 -14 90 -26 326 -121 541 -389 587 -729 3 -24 8 -46
10 -48 2 -2 0 -20 -4 -39 -4 -18 -5 -34 -1 -34 4 0 7 -10 5 -22 -1 -13 -3 -23
-4 -23 -1 0 -3 -23 -6 -51 -2 -28 -11 -75 -19 -105 -8 -30 -17 -62 -20 -72
-10 -42 -71 -162 -112 -220 -138 -196 -329 -319 -578 -372 -46 -10 -246 -13
-280 -4 -16 4 -43 10 -60 13 -52 9 -73 14 -94 26 -12 6 -21 8 -21 5 0 -8 -137
63 -199 103 -83 55 -195 170 -246 253 -53 87 -108 214 -119 279 -4 19 -9 49
-12 65 -14 82 -10 230 10 329 19 92 78 226 138 315 29 42 146 164 193 201 61
48 202 123 231 123 8 0 14 3 14 7 0 4 6 7 13 8 6 0 46 9 87 20 57 15 103 19
195 17 66 -1 131 -5 145 -8z"/>
</g>
</svg>
